REM DIRINDEX 1\2\4\18,1\2\4\19,1\2\5\20,1\2\5\21,1\2\6\22,1\2\6\23,1\2\7\24,1\2\8\25,1\2\9\26,1\2\10\27,1\2\10\28,1\3\11\29,1\3\11\30,1\3\11\31,1\3\11\32,1\3\12\33,1\3\12\34,1\3\12\35,1\3\12\36,1\3\13\37,1\3\13\38,1\3\13\39,1\3\13\40,1\3\14\41,1\3\14\42,1\3\15\43,1\3\15\44,1\3\16\45,1\3\16\46,1\3\17\47,1\3\17\48,1\3\17\49,1\3\17\50
REM DIRNAME folder01,folder02,folder03,folder04,folder05,folder06,folder07,folder08,folder09,folder10,folder11,folder12,folder13,folder14,folder15,folder16,folder17,folder18,folder19,folder20,folder21,folder22,folder23,folder24,folder25,folder26,folder27,folder28,folder29,folder30,folder31,folder32,folder33,folder34,folder35,folder36,folder37,folder38,folder39,folder40,folder41,folder42,folder43,folder44,folder45,folder46,folder47,folder48,folder49,folder50
TITLE ""
FILE "08.mp3" MP3
  TRACK 01 AUDIO
    TITLE "0:"
    INDEX 01 00:00:00
  TRACK 02 AUDIO
    TITLE "18:cjc135_1153"
    INDEX 01 00:00:15
  TRACK 03 AUDIO
    TITLE "0:"
    INDEX 01 00:01:21
  TRACK 04 AUDIO
    TITLE "19:cjc135_1154"
    INDEX 01 00:01:48
  TRACK 05 AUDIO
    TITLE "0:"
    INDEX 01 00:03:21
  TRACK 06 AUDIO
    TITLE "18:cjc135_1155"
    INDEX 01 00:04:19
  TRACK 07 AUDIO
    TITLE "0:"
    INDEX 01 00:05:38
  TRACK 08 AUDIO
    TITLE "19:cjc135_1156"
    INDEX 01 00:05:65
  TRACK 09 AUDIO
    TITLE "0:"
    INDEX 01 00:08:09
  TRACK 10 AUDIO
    TITLE "18:cjc135_1157"
    INDEX 01 00:09:10
  TRACK 11 AUDIO
    TITLE "0:"
    INDEX 01 00:10:33
  TRACK 12 AUDIO
    TITLE "19:cjc135_1158"
    INDEX 01 00:10:57
  TRACK 13 AUDIO
    TITLE "0:"
    INDEX 01 00:12:44
  TRACK 14 AUDIO
    TITLE "18:cjc135_1159"
    INDEX 01 00:13:47
  TRACK 15 AUDIO
    TITLE "0:"
    INDEX 01 00:14:70
  TRACK 16 AUDIO
    TITLE "19:cjc135_1160"
    INDEX 01 00:15:21
  TRACK 17 AUDIO
    TITLE "0:"
    INDEX 01 00:16:73
  TRACK 18 AUDIO
    TITLE "18:cjc135_1161"
    INDEX 01 00:17:72
  TRACK 19 AUDIO
    TITLE "0:"
    INDEX 01 00:19:22
  TRACK 20 AUDIO
    TITLE "19:cjc135_1162"
    INDEX 01 00:19:48
  TRACK 21 AUDIO
    TITLE "0:"
    INDEX 01 00:21:35
  TRACK 22 AUDIO
    TITLE "18:cjc135_1163"
    INDEX 01 00:22:36
  TRACK 23 AUDIO
    TITLE "0:"
    INDEX 01 00:23:55
  TRACK 24 AUDIO
    TITLE "19:cjc135_1164"
    INDEX 01 00:24:04
  TRACK 25 AUDIO
    TITLE "0:"
    INDEX 01 00:26:01
  TRACK 26 AUDIO
    TITLE "18:cjc135_1165"
    INDEX 01 00:27:02
  TRACK 27 AUDIO
    TITLE "0:"
    INDEX 01 00:28:25
  TRACK 28 AUDIO
    TITLE "19:cjc135_1166"
    INDEX 01 00:28:53
  TRACK 29 AUDIO
    TITLE "0:"
    INDEX 01 00:30:63
  TRACK 30 AUDIO
    TITLE "18:cjc135_1167"
    INDEX 01 00:31:65
  TRACK 31 AUDIO
    TITLE "0:"
    INDEX 01 00:32:74
  TRACK 32 AUDIO
    TITLE "19:cjc135_1168"
    INDEX 01 00:33:22
  TRACK 33 AUDIO
    TITLE "0:"
    INDEX 01 00:35:64
  TRACK 34 AUDIO
    TITLE "18:cjc135_1169"
    INDEX 01 00:36:64
  TRACK 35 AUDIO
    TITLE "0:"
    INDEX 01 00:38:08
  TRACK 36 AUDIO
    TITLE "19:cjc135_1170"
    INDEX 01 00:38:31
  TRACK 37 AUDIO
    TITLE "0:"
    INDEX 01 00:40:64
  TRACK 38 AUDIO
    TITLE "18:cjc135_1171"
    INDEX 01 00:41:65
  TRACK 39 AUDIO
    TITLE "0:"
    INDEX 01 00:42:74
  TRACK 40 AUDIO
    TITLE "19:cjc135_1172"
    INDEX 01 00:43:23
  TRACK 41 AUDIO
    TITLE "0:"
    INDEX 01 00:45:33
  TRACK 42 AUDIO
    TITLE "18:cjc135_1173"
    INDEX 01 00:46:33
  TRACK 43 AUDIO
    TITLE "0:"
    INDEX 01 00:47:56
  TRACK 44 AUDIO
    TITLE "19:cjc135_1174"
    INDEX 01 00:48:06
  TRACK 45 AUDIO
    TITLE "0:"
    INDEX 01 00:49:74
  TRACK 46 AUDIO
    TITLE "18:cjc135_1175"
    INDEX 01 00:50:72
  TRACK 47 AUDIO
    TITLE "0:"
    INDEX 01 00:52:14
  TRACK 48 AUDIO
    TITLE "19:cjc135_1176"
    INDEX 01 00:52:37
  TRACK 49 AUDIO
    TITLE "0:"
    INDEX 01 00:54:44
  TRACK 50 AUDIO
    TITLE "18:cjc135_1177"
    INDEX 01 00:55:46
  TRACK 51 AUDIO
    TITLE "0:"
    INDEX 01 00:57:05
  TRACK 52 AUDIO
    TITLE "19:cjc135_1178"
    INDEX 01 00:57:29
  TRACK 53 AUDIO
    TITLE "0:"
    INDEX 01 00:59:28
  TRACK 54 AUDIO
    TITLE "18:cjc135_1179"
    INDEX 01 01:00:29
  TRACK 55 AUDIO
    TITLE "0:"
    INDEX 01 01:01:42
  TRACK 56 AUDIO
    TITLE "19:cjc135_1180"
    INDEX 01 01:01:64
  TRACK 57 AUDIO
    TITLE "0:"
    INDEX 01 01:04:39
  TRACK 58 AUDIO
    TITLE "18:cjc135_1181"
    INDEX 01 01:05:40
  TRACK 59 AUDIO
    TITLE "0:"
    INDEX 01 01:06:45
  TRACK 60 AUDIO
    TITLE "19:cjc135_1182"
    INDEX 01 01:06:69
  TRACK 61 AUDIO
    TITLE "0:"
    INDEX 01 01:09:30
  TRACK 62 AUDIO
    TITLE "18:cjc135_1183"
    INDEX 01 01:10:30
  TRACK 63 AUDIO
    TITLE "0:"
    INDEX 01 01:11:37
  TRACK 64 AUDIO
    TITLE "19:cjc135_1184"
    INDEX 01 01:11:62
  TRACK 65 AUDIO
    TITLE "0:"
    INDEX 01 01:14:12
  TRACK 66 AUDIO
    TITLE "18:cjc135_1185"
    INDEX 01 01:15:09
  TRACK 67 AUDIO
    TITLE "0:"
    INDEX 01 01:16:16
  TRACK 68 AUDIO
    TITLE "19:cjc135_1186"
    INDEX 01 01:16:42
  TRACK 69 AUDIO
    TITLE "0:"
    INDEX 01 01:18:51
  TRACK 70 AUDIO
    TITLE "18:cjc135_1187"
    INDEX 01 01:19:52
  TRACK 71 AUDIO
    TITLE "0:"
    INDEX 01 01:20:59
  TRACK 72 AUDIO
    TITLE "19:cjc135_1188"
    INDEX 01 01:21:10
  TRACK 73 AUDIO
    TITLE "0:"
    INDEX 01 01:23:11
  TRACK 74 AUDIO
    TITLE "18:cjc135_1189"
    INDEX 01 01:24:12
  TRACK 75 AUDIO
    TITLE "0:"
    INDEX 01 01:25:35
  TRACK 76 AUDIO
    TITLE "19:cjc135_1190"
    INDEX 01 01:25:62
  TRACK 77 AUDIO
    TITLE "0:"
    INDEX 01 01:28:69
  TRACK 78 AUDIO
    TITLE "18:cjc135_1191"
    INDEX 01 01:29:70
  TRACK 79 AUDIO
    TITLE "0:"
    INDEX 01 01:31:28
  TRACK 80 AUDIO
    TITLE "19:cjc135_1192"
    INDEX 01 01:31:55
  TRACK 81 AUDIO
    TITLE "0:"
    INDEX 01 01:34:63
  TRACK 82 AUDIO
    TITLE "18:cjc135_1193"
    INDEX 01 01:35:63
  TRACK 83 AUDIO
    TITLE "0:"
    INDEX 01 01:37:09
  TRACK 84 AUDIO
    TITLE "19:cjc135_1194"
    INDEX 01 01:37:34
  TRACK 85 AUDIO
    TITLE "0:"
    INDEX 01 01:39:41
  TRACK 86 AUDIO
    TITLE "18:cjc135_1195"
    INDEX 01 01:40:40
  TRACK 87 AUDIO
    TITLE "0:"
    INDEX 01 01:41:65
  TRACK 88 AUDIO
    TITLE "19:cjc135_1196"
    INDEX 01 01:42:14
  TRACK 89 AUDIO
    TITLE "0:"
    INDEX 01 01:44:46
  TRACK 90 AUDIO
    TITLE "18:cjc135_1197"
    INDEX 01 01:45:45
  TRACK 91 AUDIO
    TITLE "0:"
    INDEX 01 01:46:66
  TRACK 92 AUDIO
    TITLE "19:cjc135_1198"
    INDEX 01 01:47:15
  TRACK 93 AUDIO
    TITLE "0:"
    INDEX 01 01:49:00
  TRACK 94 AUDIO
    TITLE "18:cjc135_1199"
    INDEX 01 01:50:00
  TRACK 95 AUDIO
    TITLE "0:"
    INDEX 01 01:51:07
  TRACK 96 AUDIO
    TITLE "19:cjc135_1200"
    INDEX 01 01:51:34
  TRACK 97 AUDIO
    TITLE "0:"
    INDEX 01 01:53:12
  TRACK 98 AUDIO
    TITLE "18:cjc135_1201"
    INDEX 01 01:54:13
  TRACK 99 AUDIO
    TITLE "0:"
    INDEX 01 01:55:24
  TRACK 100 AUDIO
    TITLE "19:cjc135_1202"
    INDEX 01 01:55:48
  TRACK 101 AUDIO
    TITLE "0:"
    INDEX 01 01:58:46
  TRACK 102 AUDIO
    TITLE "18:cjc135_1203"
    INDEX 01 01:59:46
  TRACK 103 AUDIO
    TITLE "0:"
    INDEX 01 02:00:53
  TRACK 104 AUDIO
    TITLE "19:cjc135_1204"
    INDEX 01 02:01:05
  TRACK 105 AUDIO
    TITLE "0:"
    INDEX 01 02:03:20
  TRACK 106 AUDIO
    TITLE "18:cjc135_1205"
    INDEX 01 02:04:21
  TRACK 107 AUDIO
    TITLE "0:"
    INDEX 01 02:05:29
  TRACK 108 AUDIO
    TITLE "19:cjc135_1206"
    INDEX 01 02:05:54
  TRACK 109 AUDIO
    TITLE "0:"
    INDEX 01 02:07:71
  TRACK 110 AUDIO
    TITLE "18:cjc135_1207"
    INDEX 01 02:08:72
  TRACK 111 AUDIO
    TITLE "0:"
    INDEX 01 02:10:16
  TRACK 112 AUDIO
    TITLE "19:cjc135_1208"
    INDEX 01 02:10:42
  TRACK 113 AUDIO
    TITLE "0:"
    INDEX 01 02:12:62
  TRACK 114 AUDIO
    TITLE "18:cjc135_1209"
    INDEX 01 02:13:65
  TRACK 115 AUDIO
    TITLE "0:"
    INDEX 01 02:15:15
  TRACK 116 AUDIO
    TITLE "19:cjc135_1210"
    INDEX 01 02:15:37
  TRACK 117 AUDIO
    TITLE "0:"
    INDEX 01 02:18:21
  TRACK 118 AUDIO
    TITLE "18:cjc135_1211"
    INDEX 01 02:19:21
  TRACK 119 AUDIO
    TITLE "0:"
    INDEX 01 02:20:28
  TRACK 120 AUDIO
    TITLE "19:cjc135_1212"
    INDEX 01 02:20:52
  TRACK 121 AUDIO
    TITLE "0:"
    INDEX 01 02:23:01
  TRACK 122 AUDIO
    TITLE "18:cjc135_1213"
    INDEX 01 02:24:04
  TRACK 123 AUDIO
    TITLE "0:"
    INDEX 01 02:25:41
  TRACK 124 AUDIO
    TITLE "19:cjc135_1214"
    INDEX 01 02:25:74
  TRACK 125 AUDIO
    TITLE "0:"
    INDEX 01 02:28:02
  TRACK 126 AUDIO
    TITLE "18:cjc135_1215"
    INDEX 01 02:29:02
  TRACK 127 AUDIO
    TITLE "0:"
    INDEX 01 02:30:25
  TRACK 128 AUDIO
    TITLE "19:cjc135_1216"
    INDEX 01 02:30:50
  TRACK 129 AUDIO
    TITLE "0:"
    INDEX 01 02:33:37
  TRACK 130 AUDIO
    TITLE "18:cjc135_1217"
    INDEX 01 02:34:38
  TRACK 131 AUDIO
    TITLE "0:"
    INDEX 01 02:35:41
  TRACK 132 AUDIO
    TITLE "19:cjc135_1218"
    INDEX 01 02:35:65
  TRACK 133 AUDIO
    TITLE "0:"
    INDEX 01 02:38:03
  TRACK 134 AUDIO
    TITLE "18:cjc135_1219"
    INDEX 01 02:39:06
  TRACK 135 AUDIO
    TITLE "0:"
    INDEX 01 02:40:25
  TRACK 136 AUDIO
    TITLE "19:cjc135_1220"
    INDEX 01 02:40:50
  TRACK 137 AUDIO
    TITLE "0:"
    INDEX 01 02:42:42
  TRACK 138 AUDIO
    TITLE "18:cjc135_1221"
    INDEX 01 02:43:39
  TRACK 139 AUDIO
    TITLE "0:"
    INDEX 01 02:44:44
  TRACK 140 AUDIO
    TITLE "19:cjc135_1222"
    INDEX 01 02:44:68
  TRACK 141 AUDIO
    TITLE "0:"
    INDEX 01 02:47:35
  TRACK 142 AUDIO
    TITLE "18:cjc135_1223"
    INDEX 01 02:48:36
  TRACK 143 AUDIO
    TITLE "0:"
    INDEX 01 02:49:47
  TRACK 144 AUDIO
    TITLE "19:cjc135_1224"
    INDEX 01 02:49:73
  TRACK 145 AUDIO
    TITLE "0:"
    INDEX 01 02:51:56
  TRACK 146 AUDIO
    TITLE "18:cjc135_1225"
    INDEX 01 02:52:54
  TRACK 147 AUDIO
    TITLE "0:"
    INDEX 01 02:53:69
  TRACK 148 AUDIO
    TITLE "19:cjc135_1226"
    INDEX 01 02:54:19
  TRACK 149 AUDIO
    TITLE "0:"
    INDEX 01 02:56:14
  TRACK 150 AUDIO
    TITLE "18:cjc135_1227"
    INDEX 01 02:57:16
  TRACK 151 AUDIO
    TITLE "0:"
    INDEX 01 02:58:29
  TRACK 152 AUDIO
    TITLE "19:cjc135_1228"
    INDEX 01 02:58:54
  TRACK 153 AUDIO
    TITLE "0:"
    INDEX 01 03:01:57
  TRACK 154 AUDIO
    TITLE "18:cjc135_1229"
    INDEX 01 03:02:58
  TRACK 155 AUDIO
    TITLE "0:"
    INDEX 01 03:03:55
  TRACK 156 AUDIO
    TITLE "19:cjc135_1230"
    INDEX 01 03:04:04
  TRACK 157 AUDIO
    TITLE "0:"
    INDEX 01 03:06:01
  TRACK 158 AUDIO
    TITLE "18:cjc135_1231"
    INDEX 01 03:07:02
  TRACK 159 AUDIO
    TITLE "0:"
    INDEX 01 03:08:17
  TRACK 160 AUDIO
    TITLE "19:cjc135_1232"
    INDEX 01 03:08:43
  TRACK 161 AUDIO
    TITLE "0:"
    INDEX 01 03:11:33
  TRACK 162 AUDIO
    TITLE "18:cjc135_1233"
    INDEX 01 03:12:33
  TRACK 163 AUDIO
    TITLE "0:"
    INDEX 01 03:13:44
  TRACK 164 AUDIO
    TITLE "19:cjc135_1234"
    INDEX 01 03:13:68
  TRACK 165 AUDIO
    TITLE "0:"
    INDEX 01 03:16:01
  TRACK 166 AUDIO
    TITLE "18:cjc135_1235"
    INDEX 01 03:17:03
  TRACK 167 AUDIO
    TITLE "0:"
    INDEX 01 03:18:10
  TRACK 168 AUDIO
    TITLE "19:cjc135_1236"
    INDEX 01 03:18:33
  TRACK 169 AUDIO
    TITLE "0:"
    INDEX 01 03:20:72
  TRACK 170 AUDIO
    TITLE "18:cjc135_1237"
    INDEX 01 03:21:73
  TRACK 171 AUDIO
    TITLE "0:"
    INDEX 01 03:23:09
  TRACK 172 AUDIO
    TITLE "19:cjc135_1238"
    INDEX 01 03:23:40
  TRACK 173 AUDIO
    TITLE "0:"
    INDEX 01 03:25:26
  TRACK 174 AUDIO
    TITLE "18:cjc135_1239"
    INDEX 01 03:26:27
  TRACK 175 AUDIO
    TITLE "0:"
    INDEX 01 03:27:50
  TRACK 176 AUDIO
    TITLE "19:cjc135_1240"
    INDEX 01 03:28:00
  TRACK 177 AUDIO
    TITLE "0:"
    INDEX 01 03:30:46
  TRACK 178 AUDIO
    TITLE "18:cjc135_1241"
    INDEX 01 03:31:44
  TRACK 179 AUDIO
    TITLE "0:"
    INDEX 01 03:32:57
  TRACK 180 AUDIO
    TITLE "19:cjc135_1242"
    INDEX 01 03:33:08
  TRACK 181 AUDIO
    TITLE "0:"
    INDEX 01 03:35:63
  TRACK 182 AUDIO
    TITLE "18:cjc135_1243"
    INDEX 01 03:36:65
  TRACK 183 AUDIO
    TITLE "0:"
    INDEX 01 03:37:74
  TRACK 184 AUDIO
    TITLE "19:cjc135_1244"
    INDEX 01 03:38:24
  TRACK 185 AUDIO
    TITLE "0:"
    INDEX 01 03:40:41
  TRACK 186 AUDIO
    TITLE "18:cjc135_1245"
    INDEX 01 03:41:42
  TRACK 187 AUDIO
    TITLE "0:"
    INDEX 01 03:42:50
  TRACK 188 AUDIO
    TITLE "19:cjc135_1246"
    INDEX 01 03:43:02
  TRACK 189 AUDIO
    TITLE "0:"
    INDEX 01 03:45:17
  TRACK 190 AUDIO
    TITLE "18:cjc135_1247"
    INDEX 01 03:46:18
  TRACK 191 AUDIO
    TITLE "0:"
    INDEX 01 03:47:25
  TRACK 192 AUDIO
    TITLE "19:cjc135_1248"
    INDEX 01 03:47:49
  TRACK 193 AUDIO
    TITLE "0:"
    INDEX 01 03:49:16
  TRACK 194 AUDIO
    TITLE "18:cjc135_1249"
    INDEX 01 03:50:18
  TRACK 195 AUDIO
    TITLE "0:"
    INDEX 01 03:51:33
  TRACK 196 AUDIO
    TITLE "19:cjc135_1250"
    INDEX 01 03:51:60
  TRACK 197 AUDIO
    TITLE "0:"
    INDEX 01 03:54:35
  TRACK 198 AUDIO
    TITLE "18:cjc135_1251"
    INDEX 01 03:55:35
  TRACK 199 AUDIO
    TITLE "0:"
    INDEX 01 03:56:52
  TRACK 200 AUDIO
    TITLE "19:cjc135_1252"
    INDEX 01 03:57:04
  TRACK 201 AUDIO
    TITLE "0:"
    INDEX 01 03:59:54
  TRACK 202 AUDIO
    TITLE "18:cjc135_1253"
    INDEX 01 04:00:55
  TRACK 203 AUDIO
    TITLE "0:"
    INDEX 01 04:02:03
  TRACK 204 AUDIO
    TITLE "19:cjc135_1254"
    INDEX 01 04:02:37
  TRACK 205 AUDIO
    TITLE "0:"
    INDEX 01 04:04:61
  TRACK 206 AUDIO
    TITLE "18:cjc135_1255"
    INDEX 01 04:05:57
  TRACK 207 AUDIO
    TITLE "0:"
    INDEX 01 04:06:58
  TRACK 208 AUDIO
    TITLE "19:cjc135_1256"
    INDEX 01 04:07:10
  TRACK 209 AUDIO
    TITLE "0:"
    INDEX 01 04:09:45
  TRACK 210 AUDIO
    TITLE "18:cjc135_1257"
    INDEX 01 04:10:46
  TRACK 211 AUDIO
    TITLE "0:"
    INDEX 01 04:11:67
  TRACK 212 AUDIO
    TITLE "19:cjc135_1258"
    INDEX 01 04:12:19
  TRACK 213 AUDIO
    TITLE "0:"
    INDEX 01 04:15:20
  TRACK 214 AUDIO
    TITLE "18:cjc135_1259"
    INDEX 01 04:16:19
  TRACK 215 AUDIO
    TITLE "0:"
    INDEX 01 04:17:48
  TRACK 216 AUDIO
    TITLE "19:cjc135_1260"
    INDEX 01 04:17:69
  TRACK 217 AUDIO
    TITLE "0:"
    INDEX 01 04:20:17
  TRACK 218 AUDIO
    TITLE "18:cjc135_1261"
    INDEX 01 04:21:16
  TRACK 219 AUDIO
    TITLE "0:"
    INDEX 01 04:22:22
  TRACK 220 AUDIO
    TITLE "19:cjc135_1262"
    INDEX 01 04:22:55
  TRACK 221 AUDIO
    TITLE "0:"
    INDEX 01 04:24:56
  TRACK 222 AUDIO
    TITLE "18:cjc135_1263"
    INDEX 01 04:25:57
  TRACK 223 AUDIO
    TITLE "0:"
    INDEX 01 04:26:55
  TRACK 224 AUDIO
    TITLE "19:cjc135_1264"
    INDEX 01 04:27:07
  TRACK 225 AUDIO
    TITLE "0:"
    INDEX 01 04:29:16
  TRACK 226 AUDIO
    TITLE "18:cjc135_1265"
    INDEX 01 04:30:17
  TRACK 227 AUDIO
    TITLE "0:"
    INDEX 01 04:31:27
  TRACK 228 AUDIO
    TITLE "19:cjc135_1266"
    INDEX 01 04:31:52
  TRACK 229 AUDIO
    TITLE "0:"
    INDEX 01 04:33:29
  TRACK 230 AUDIO
    TITLE "18:cjc135_1267"
    INDEX 01 04:34:29
  TRACK 231 AUDIO
    TITLE "0:"
    INDEX 01 04:35:46
  TRACK 232 AUDIO
    TITLE "19:cjc135_1268"
    INDEX 01 04:35:71
  TRACK 233 AUDIO
    TITLE "0:"
    INDEX 01 04:38:27
  TRACK 234 AUDIO
    TITLE "18:cjc135_1269"
    INDEX 01 04:39:26
  TRACK 235 AUDIO
    TITLE "0:"
    INDEX 01 04:40:43
  TRACK 236 AUDIO
    TITLE "19:cjc135_1270"
    INDEX 01 04:40:71
  TRACK 237 AUDIO
    TITLE "0:"
    INDEX 01 04:43:16
  TRACK 238 AUDIO
    TITLE "18:cjc135_1271"
    INDEX 01 04:44:15
  TRACK 239 AUDIO
    TITLE "0:"
    INDEX 01 04:45:13
  TRACK 240 AUDIO
    TITLE "19:cjc135_1272"
    INDEX 01 04:45:36
  TRACK 241 AUDIO
    TITLE "0:"
    INDEX 01 04:47:02
  TRACK 242 AUDIO
    TITLE "18:cjc135_1273"
    INDEX 01 04:48:00
  TRACK 243 AUDIO
    TITLE "0:"
    INDEX 01 04:49:09
  TRACK 244 AUDIO
    TITLE "19:cjc135_1274"
    INDEX 01 04:49:34
  TRACK 245 AUDIO
    TITLE "0:"
    INDEX 01 04:51:59
  TRACK 246 AUDIO
    TITLE "18:cjc135_1275"
    INDEX 01 04:52:60
  TRACK 247 AUDIO
    TITLE "0:"
    INDEX 01 04:54:20
  TRACK 248 AUDIO
    TITLE "19:cjc135_1276"
    INDEX 01 04:54:45
  TRACK 249 AUDIO
    TITLE "0:"
    INDEX 01 04:56:60
  TRACK 250 AUDIO
    TITLE "18:cjc135_1277"
    INDEX 01 04:57:59
  TRACK 251 AUDIO
    TITLE "0:"
    INDEX 01 04:59:03
  TRACK 252 AUDIO
    TITLE "19:cjc135_1278"
    INDEX 01 04:59:27
  TRACK 253 AUDIO
    TITLE "0:"
    INDEX 01 05:01:53
  TRACK 254 AUDIO
    TITLE "18:cjc135_1279"
    INDEX 01 05:02:54
  TRACK 255 AUDIO
    TITLE "0:"
    INDEX 01 05:03:56
  TRACK 256 AUDIO
    TITLE "19:cjc135_1280"
    INDEX 01 05:04:08
  TRACK 257 AUDIO
    TITLE "0:"
    INDEX 01 05:06:03
  TRACK 258 AUDIO
    TITLE "18:cjc135_1281"
    INDEX 01 05:07:05
  TRACK 259 AUDIO
    TITLE "0:"
    INDEX 01 05:08:16
  TRACK 260 AUDIO
    TITLE "19:cjc135_1282"
    INDEX 01 05:08:45
  TRACK 261 AUDIO
    TITLE "0:"
    INDEX 01 05:10:50
  TRACK 262 AUDIO
    TITLE "18:cjc135_1283"
    INDEX 01 05:11:50
  TRACK 263 AUDIO
    TITLE "0:"
    INDEX 01 05:12:72
  TRACK 264 AUDIO
    TITLE "19:cjc135_1284"
    INDEX 01 05:13:23
  TRACK 265 AUDIO
    TITLE "0:"
    INDEX 01 05:16:15
  TRACK 266 AUDIO
    TITLE "18:cjc135_1285"
    INDEX 01 05:17:15
  TRACK 267 AUDIO
    TITLE "0:"
    INDEX 01 05:18:36
  TRACK 268 AUDIO
    TITLE "19:cjc135_1286"
    INDEX 01 05:18:61
  TRACK 269 AUDIO
    TITLE "0:"
    INDEX 01 05:21:19
  TRACK 270 AUDIO
    TITLE "18:cjc135_1287"
    INDEX 01 05:22:20
  TRACK 271 AUDIO
    TITLE "0:"
    INDEX 01 05:23:27
  TRACK 272 AUDIO
    TITLE "19:cjc135_1288"
    INDEX 01 05:23:49
  TRACK 273 AUDIO
    TITLE "0:"
    INDEX 01 05:25:63
  TRACK 274 AUDIO
    TITLE "18:cjc135_1289"
    INDEX 01 05:26:63
  TRACK 275 AUDIO
    TITLE "0:"
    INDEX 01 05:28:01
  TRACK 276 AUDIO
    TITLE "19:cjc135_1290"
    INDEX 01 05:28:26
  TRACK 277 AUDIO
    TITLE "0:"
    INDEX 01 05:31:07
  TRACK 278 AUDIO
    TITLE "18:cjc135_1291"
    INDEX 01 05:32:07
  TRACK 279 AUDIO
    TITLE "0:"
    INDEX 01 05:33:24
  TRACK 280 AUDIO
    TITLE "19:cjc135_1292"
    INDEX 01 05:33:49
  TRACK 281 AUDIO
    TITLE "0:"
    INDEX 01 05:36:08
  TRACK 282 AUDIO
    TITLE "18:cjc135_1293"
    INDEX 01 05:37:10
  TRACK 283 AUDIO
    TITLE "0:"
    INDEX 01 05:38:27
  TRACK 284 AUDIO
    TITLE "19:cjc135_1294"
    INDEX 01 05:38:52
  TRACK 285 AUDIO
    TITLE "0:"
    INDEX 01 05:40:45
  TRACK 286 AUDIO
    TITLE "18:cjc135_1295"
    INDEX 01 05:41:45
  TRACK 287 AUDIO
    TITLE "0:"
    INDEX 01 05:42:66
  TRACK 288 AUDIO
    TITLE "19:cjc135_1296"
    INDEX 01 05:43:16
  TRACK 289 AUDIO
    TITLE "0:"
    INDEX 01 05:45:21
  TRACK 290 AUDIO
    TITLE "18:cjc135_1297"
    INDEX 01 05:46:18
  TRACK 291 AUDIO
    TITLE "0:"
    INDEX 01 05:47:24
  TRACK 292 AUDIO
    TITLE "19:cjc135_1298"
    INDEX 01 05:47:49
  TRACK 293 AUDIO
    TITLE "0:"
    INDEX 01 05:49:17
  TRACK 294 AUDIO
    TITLE "18:cjc135_1299"
    INDEX 01 05:50:26
  TRACK 295 AUDIO
    TITLE "0:"
    INDEX 01 05:51:39
  TRACK 296 AUDIO
    TITLE "19:cjc135_1300"
    INDEX 01 05:51:71
  TRACK 297 AUDIO
    TITLE "0:"
    INDEX 01 05:53:64
  TRACK 298 AUDIO
    TITLE "18:cjc135_1301"
    INDEX 01 05:54:65
  TRACK 299 AUDIO
    TITLE "0:"
    INDEX 01 05:56:09
  TRACK 300 AUDIO
    TITLE "19:cjc135_1302"
    INDEX 01 05:56:33
  TRACK 301 AUDIO
    TITLE "0:"
    INDEX 01 05:58:24
  TRACK 302 AUDIO
    TITLE "18:cjc135_1303"
    INDEX 01 05:59:21
  TRACK 303 AUDIO
    TITLE "0:"
    INDEX 01 06:00:46
  TRACK 304 AUDIO
    TITLE "19:cjc135_1304"
    INDEX 01 06:00:70
  TRACK 305 AUDIO
    TITLE "0:"
    INDEX 01 06:02:43
  TRACK 306 AUDIO
    TITLE "18:cjc135_1305"
    INDEX 01 06:03:44
  TRACK 307 AUDIO
    TITLE "0:"
    INDEX 01 06:04:52
  TRACK 308 AUDIO
    TITLE "19:cjc135_1306"
    INDEX 01 06:05:02
  TRACK 309 AUDIO
    TITLE "0:"
    INDEX 01 06:07:50
  TRACK 310 AUDIO
    TITLE "18:cjc135_1307"
    INDEX 01 06:08:49
  TRACK 311 AUDIO
    TITLE "0:"
    INDEX 01 06:09:61
  TRACK 312 AUDIO
    TITLE "19:cjc135_1308"
    INDEX 01 06:10:09
  TRACK 313 AUDIO
    TITLE "0:"
    INDEX 01 06:11:52
  TRACK 314 AUDIO
    TITLE "18:cjc135_1309"
    INDEX 01 06:12:51
  TRACK 315 AUDIO
    TITLE "0:"
    INDEX 01 06:13:51
  TRACK 316 AUDIO
    TITLE "19:cjc135_1310"
    INDEX 01 06:14:03
  TRACK 317 AUDIO
    TITLE "0:"
    INDEX 01 06:15:73
  TRACK 318 AUDIO
    TITLE "18:cjc135_1311"
    INDEX 01 06:16:72
  TRACK 319 AUDIO
    TITLE "0:"
    INDEX 01 06:17:72
  TRACK 320 AUDIO
    TITLE "19:cjc135_1312"
    INDEX 01 06:18:22
  TRACK 321 AUDIO
    TITLE "0:"
    INDEX 01 06:19:59
  TRACK 322 AUDIO
    TITLE "18:cjc135_1313"
    INDEX 01 06:20:60
  TRACK 323 AUDIO
    TITLE "0:"
    INDEX 01 06:21:72
  TRACK 324 AUDIO
    TITLE "19:cjc135_1314"
    INDEX 01 06:22:22
  TRACK 325 AUDIO
    TITLE "0:"
    INDEX 01 06:24:43
  TRACK 326 AUDIO
    TITLE "18:cjc135_1315"
    INDEX 01 06:25:44
  TRACK 327 AUDIO
    TITLE "0:"
    INDEX 01 06:26:69
  TRACK 328 AUDIO
    TITLE "19:cjc135_1316"
    INDEX 01 06:27:17
  TRACK 329 AUDIO
    TITLE "0:"
    INDEX 01 06:29:73
  TRACK 330 AUDIO
    TITLE "18:cjc135_1317"
    INDEX 01 06:30:73
  TRACK 331 AUDIO
    TITLE "0:"
    INDEX 01 06:32:44
  TRACK 332 AUDIO
    TITLE "19:cjc135_1318"
    INDEX 01 06:32:68
  TRACK 333 AUDIO
    TITLE "0:"
    INDEX 01 06:35:01
  TRACK 334 AUDIO
    TITLE "18:cjc135_1319"
    INDEX 01 06:35:74
  TRACK 335 AUDIO
    TITLE "0:"
    INDEX 01 06:37:14
  TRACK 336 AUDIO
    TITLE "19:cjc135_1320"
    INDEX 01 06:37:39
  TRACK 337 AUDIO
    TITLE "0:"
    INDEX 01 06:39:23
  TRACK 338 AUDIO
    TITLE "18:cjc135_1321"
    INDEX 01 06:40:24
  TRACK 339 AUDIO
    TITLE "0:"
    INDEX 01 06:41:29
  TRACK 340 AUDIO
    TITLE "19:cjc135_1322"
    INDEX 01 06:41:55
  TRACK 341 AUDIO
    TITLE "0:"
    INDEX 01 06:44:14
  TRACK 342 AUDIO
    TITLE "18:cjc135_1323"
    INDEX 01 06:45:11
  TRACK 343 AUDIO
    TITLE "0:"
    INDEX 01 06:46:52
  TRACK 344 AUDIO
    TITLE "19:cjc135_1324"
    INDEX 01 06:47:03
  TRACK 345 AUDIO
    TITLE "0:"
    INDEX 01 06:49:39
  TRACK 346 AUDIO
    TITLE "18:cjc135_1325"
    INDEX 01 06:50:42
  TRACK 347 AUDIO
    TITLE "0:"
    INDEX 01 06:51:61
  TRACK 348 AUDIO
    TITLE "19:cjc135_1326"
    INDEX 01 06:52:10
  TRACK 349 AUDIO
    TITLE "0:"
    INDEX 01 06:54:34
  TRACK 350 AUDIO
    TITLE "18:cjc135_1327"
    INDEX 01 06:55:35
  TRACK 351 AUDIO
    TITLE "0:"
    INDEX 01 06:56:48
  TRACK 352 AUDIO
    TITLE "19:cjc135_1328"
    INDEX 01 06:57:07
  TRACK 353 AUDIO
    TITLE "0:"
    INDEX 01 06:58:53
  TRACK 354 AUDIO
    TITLE "18:cjc135_1329"
    INDEX 01 06:59:53
  TRACK 355 AUDIO
    TITLE "0:"
    INDEX 01 07:00:66
  TRACK 356 AUDIO
    TITLE "19:cjc135_1330"
    INDEX 01 07:01:16
  TRACK 357 AUDIO
    TITLE "0:"
    INDEX 01 07:03:68
  TRACK 358 AUDIO
    TITLE "18:cjc135_1331"
    INDEX 01 07:04:70
  TRACK 359 AUDIO
    TITLE "0:"
    INDEX 01 07:05:67
  TRACK 360 AUDIO
    TITLE "19:cjc135_1332"
    INDEX 01 07:06:18
  TRACK 361 AUDIO
    TITLE "0:"
    INDEX 01 07:07:74
  TRACK 362 AUDIO
    TITLE "18:cjc135_1333"
    INDEX 01 07:09:02
  TRACK 363 AUDIO
    TITLE "0:"
    INDEX 01 07:10:13
  TRACK 364 AUDIO
    TITLE "19:cjc135_1334"
    INDEX 01 07:10:39
  TRACK 365 AUDIO
    TITLE "0:"
    INDEX 01 07:11:66
  TRACK 366 AUDIO
    TITLE "18:cjc135_1335"
    INDEX 01 07:12:69
  TRACK 367 AUDIO
    TITLE "0:"
    INDEX 01 07:14:03
  TRACK 368 AUDIO
    TITLE "19:cjc135_1336"
    INDEX 01 07:14:35
  TRACK 369 AUDIO
    TITLE "0:"
    INDEX 01 07:16:67
  TRACK 370 AUDIO
    TITLE "18:cjc135_1337"
    INDEX 01 07:17:66
  TRACK 371 AUDIO
    TITLE "0:"
    INDEX 01 07:18:68
  TRACK 372 AUDIO
    TITLE "19:cjc135_1338"
    INDEX 01 07:19:20
  TRACK 373 AUDIO
    TITLE "0:"
    INDEX 01 07:21:23
  TRACK 374 AUDIO
    TITLE "18:cjc135_1339"
    INDEX 01 07:22:22
  TRACK 375 AUDIO
    TITLE "0:"
    INDEX 01 07:23:47
  TRACK 376 AUDIO
    TITLE "19:cjc135_1340"
    INDEX 01 07:23:73
  TRACK 377 AUDIO
    TITLE "0:"
    INDEX 01 07:26:36
  TRACK 378 AUDIO
    TITLE "18:cjc135_1341"
    INDEX 01 07:27:37
  TRACK 379 AUDIO
    TITLE "0:"
    INDEX 01 07:28:50
  TRACK 380 AUDIO
    TITLE "19:cjc135_1342"
    INDEX 01 07:28:74
  TRACK 381 AUDIO
    TITLE "0:"
    INDEX 01 07:31:12
  TRACK 382 AUDIO
    TITLE "18:cjc135_1343"
    INDEX 01 07:32:15
  TRACK 383 AUDIO
    TITLE "0:"
    INDEX 01 07:33:30
  TRACK 384 AUDIO
    TITLE "19:cjc135_1344"
    INDEX 01 07:33:54
  TRACK 385 AUDIO
    TITLE "0:"
    INDEX 01 07:36:07
  TRACK 386 AUDIO
    TITLE "18:cjc135_1345"
    INDEX 01 07:37:10
  TRACK 387 AUDIO
    TITLE "0:"
    INDEX 01 07:38:33
  TRACK 388 AUDIO
    TITLE "19:cjc135_1346"
    INDEX 01 07:38:57
  TRACK 389 AUDIO
    TITLE "0:"
    INDEX 01 07:40:73
  TRACK 390 AUDIO
    TITLE "18:cjc135_1347"
    INDEX 01 07:42:04
  TRACK 391 AUDIO
    TITLE "0:"
    INDEX 01 07:43:23
  TRACK 392 AUDIO
    TITLE "19:cjc135_1348"
    INDEX 01 07:43:50
  TRACK 393 AUDIO
    TITLE "0:"
    INDEX 01 07:45:63
  TRACK 394 AUDIO
    TITLE "18:cjc135_1349"
    INDEX 01 07:46:64
  TRACK 395 AUDIO
    TITLE "0:"
    INDEX 01 07:48:06
  TRACK 396 AUDIO
    TITLE "19:cjc135_1350"
    INDEX 01 07:48:30
  TRACK 397 AUDIO
    TITLE "0:"
    INDEX 01 07:49:74
  TRACK 398 AUDIO
    TITLE "18:cjc135_1351"
    INDEX 01 07:51:01
  TRACK 399 AUDIO
    TITLE "0:"
    INDEX 01 07:51:73
  TRACK 400 AUDIO
    TITLE "19:cjc135_1352"
    INDEX 01 07:52:22
  TRACK 401 AUDIO
    TITLE "0:"
    INDEX 01 07:53:48
